Results
version=1
nRows=29
nColumns=24
inDegrees=yes
endheader
time	pelvis_tilt	pelvis_list	pelvis_rotation	pelvis_tx	pelvis_ty	pelvis_tz	hip_flexion_r	hip_adduction_r	hip_rotation_r	knee_angle_r	ankle_angle_r	subtalar_angle_r	mtp_angle_r	hip_flexion_l	hip_adduction_l	hip_rotation_l	knee_angle_l	ankle_angle_l	subtalar_angle_l	mtp_angle_l	lumbar_extension	lumbar_bending	lumbar_rotation
      1.78300000	     -0.13748510	      4.26388044	     -2.23426058	      1.41852672	      1.02018890	      0.24420590	     17.73006611	     -5.84089199	     -3.60724665	    -64.63671854	      1.49714377	    -10.09799756	      3.93432411	     11.20934600	      9.57453494	      1.53635952	    -14.40752371	      7.36340475	    -10.96451314	      6.24483410	      1.56888138	     -8.67251432	      4.84788594
      1.78716667	     -0.09931931	      4.14341063	     -2.03389750	      1.42269847	      1.02097179	      0.24365826	     18.18066704	     -5.74034925	     -3.72774336	    -64.05139353	      1.95639477	    -10.25087777	      3.91851578	     10.74846321	      9.49894069	      1.69382767	    -14.12252280	      7.38337771	    -10.84794732	      6.26323032	      1.39996595	     -8.51134919	      4.57635730
      1.79133333	     -0.05832969	      4.02395329	     -1.82909627	      1.42687118	      1.02172007	      0.24310877	     18.61244517	     -5.64436049	     -3.85962612	    -63.42098040	      2.38881716	    -10.42827126	      3.89625223	     10.29321326	      9.42132276	      1.84111015	    -13.85782863	      7.40976911	    -10.73384269	      6.28001036	      1.22146149	     -8.34973276	      4.27773254
      1.79550000	     -0.02619662	      3.91311929	     -1.62669140	      1.43102943	      1.02241429	      0.24255367	     19.04439720	     -5.56245225	     -3.99483445	    -62.75461102	      2.78094266	    -10.63371116	      3.87007391	      9.85111263	      9.34948708	      1.98550323	    -13.59224931	      7.43818378	    -10.60748923	      6.29759270	      1.05155366	     -8.19757344	      4.00516028
      1.79966667	     -0.00299924	      3.80340226	     -1.42533089	      1.43520081	      1.02306625	      0.24200302	     19.46716498	     -5.48251998	     -4.13363844	    -62.03938134	      3.14466864	    -10.87068836	      3.83401043	      9.42297396	      9.27446383	      2.12191824	    -13.33338415	      7.46591071	    -10.47247924	      6.31831163	      0.89982213	     -8.04560517	      3.72067968
      1.80383333	      0.05775404	      3.70287038	     -1.22893154	      1.43936716	      1.02374116	      0.24145923	     19.83732090	     -5.41887149	     -4.28273592	    -61.28354421	      3.47401517	    -11.13700109	      3.78949867	      8.95456431	      9.20535453	      2.23210644	    -13.07060774	      7.49777524	    -10.33544536	      6.33695429	      0.70115249	     -7.90275073	      3.46026683
      1.80800000	      0.07928021	      3.60200150	     -1.02595984	      1.44351745	      1.02431591	      0.24092272	     20.23545323	     -5.35188799	     -4.43320093	    -60.48823288	      3.78170732	    -11.43024448	      3.74730052	      8.54052261	      9.13330228	      2.36665393	    -12.83289707	      7.52890306	    -10.19809661	      6.35294622	      0.54147523	     -7.77054904	      3.23100230
      1.81216667	      0.11726091	      3.51755905	     -0.83761558	      1.44770631	      1.02486597	      0.24037824	     20.60650724	     -5.30941224	     -4.58554437	    -59.65943809	      4.03877805	    -11.76288431	      3.67225488	      8.10817377	      9.07658697	      2.47210028	    -12.59433480	      7.58998009	    -10.05370733	      6.37557923	      0.39465304	     -7.62711548	      2.92635746
      1.81633333	      0.14137205	      3.43366712	     -0.64480499	      1.45189437	      1.02535508	      0.23985581	     20.97367642	     -5.26667990	     -4.74511495	    -58.79507773	      4.28362308	    -12.10355766	      3.59952759	      7.70161488	      9.01641622	      2.57971698	    -12.37243689	      7.63508136	     -9.91983484	      6.39335790	      0.25012606	     -7.51346227	      2.71454941
      1.82050000	      0.16639528	      3.36952707	     -0.44763221	      1.45611141	      1.02581173	      0.23933337	     21.32609666	     -5.24701957	     -4.90599042	    -57.89922767	      4.49581669	    -12.49627493	      3.44131120	      7.29323446	      8.97371489	      2.67841106	    -12.14711224	      7.67767692	     -9.74476496	      6.42752480	      0.10710725	     -7.40721780	      2.37118979
      1.82466667	      0.20349613	      3.31325455	     -0.25834095	      1.46027663	      1.02622962	      0.23883002	     21.65882294	     -5.23629738	     -5.06746165	    -56.97670914	      4.68101168	    -12.88765670	      3.25120431	      6.88411524	      8.93881185	      2.78723190	    -11.94268401	      7.73787955	     -9.61514082	      6.45828988	     -0.05229787	     -7.31085579	      2.12456878
      1.82883333	      0.21562444	      3.24238708	     -0.05819639	      1.46446323	      1.02658702	      0.23830770	     21.99927122	     -5.21669538	     -5.25322255	    -56.01087159	      4.83126360	    -13.26221932	      3.15176825	      6.51462209	      8.88933817	      2.92326308	    -11.77151336	      7.83174700	     -9.50696951	      6.47505591	     -0.16431084	     -7.19575848	      1.97966892
      1.83300000	      0.23479746	      3.20915254	      0.11223155	      1.46873072	      1.02690357	      0.23785536	     22.32629605	     -5.22113938	     -5.39140160	    -55.03308721	      4.92844605	    -13.70162424	      2.98306348	      6.11636575	      8.87207009	      3.02409641	    -11.55426448	      7.90106266	     -9.36238463	      6.49863556	     -0.28073911	     -7.11788018	      1.71358128
      1.83716667	      0.25382081	      3.17373220	      0.29515989	      1.47291186	      1.02718549	      0.23740901	     22.63965461	     -5.22445527	     -5.54254607	    -54.02428621	      5.03625192	    -14.12321444	      2.72917431	      5.74376085	      8.85121599	      3.14129273	    -11.38133415	      7.95685130	     -9.23174017	      6.52473463	     -0.42540088	     -7.05873276	      1.44552828
      1.84133333	      0.26475615	      3.12664773	      0.50587976	      1.47712146	      1.02742156	      0.23692498	     22.93990383	     -5.23140215	     -5.73662765	    -52.98664784	      5.10984447	    -14.49302735	      2.58163504	      5.39350052	      8.82026918	      3.28845277	    -11.24668642	      8.07252240	     -9.14483995	      6.54168955	     -0.52785217	     -6.97416370	      1.30108497
      1.84550000	      0.27688028	      3.11977185	      0.65106924	      1.48135568	      1.02760394	      0.23656976	     23.24824258	     -5.24535346	     -5.83773174	    -51.94166395	      5.14097773	    -14.92330087	      2.23376560	      5.02630159	      8.82249215	      3.38627563	    -11.06932737	      8.12389554	     -9.02757265	      6.57164453	     -0.65412241	     -6.94361118	      1.01911433
      1.84966667	      0.30323367	      3.09871224	      0.82974599	      1.48563904	      1.02779190	      0.23615900	     23.51217057	     -5.26709889	     -5.99944606	    -50.86376763	      5.15001781	    -15.27462015	      1.99808849	      4.64889634	      8.81287333	      3.52233344	    -10.91368001	      8.24200414	     -8.95417147	      6.58949464	     -0.75134886	     -6.88203001	      0.86676295
      1.85383333	      0.28771029	      3.08858320	      1.02080049	      1.48987534	      1.02787404	      0.23577487	     23.81693869	     -5.29521460	     -6.14906313	    -49.77953856	      5.16099807	    -15.59253240	      1.81215338	      4.34087878	      8.81370199	      3.68407334	    -10.80838093	      8.34201227	     -8.88165551	      6.60259220	     -0.83911568	     -6.85604385	      0.71189857
      1.85800000	      0.29474939	      3.10436135	      1.16509288	      1.49414100	      1.02793529	      0.23547278	     24.10128577	     -5.32914507	     -6.24007622	    -48.69044531	      5.12903282	    -15.90481949	      1.60423359	      3.99031791	      8.83645556	      3.81225485	    -10.66207556	      8.42701681	     -8.82334542	      6.61394650	     -0.94067219	     -6.85434227	      0.54495891
      1.86216667	      0.31150780	      3.12156090	      1.30839965	      1.49841162	      1.02800627	      0.23519308	     24.35651376	     -5.36074542	     -6.32687379	    -47.57730531	      5.04513786	    -16.19246011	      1.26369222	      3.62736520	      8.85823941	      3.94324333	    -10.50634440	      8.50952564	     -8.78520617	      6.62410832	     -1.03396400	     -6.84900761	      0.31744759
      1.86633333	      0.28989870	      3.14808520	      1.48369661	      1.50266527	      1.02795880	      0.23489804	     24.64883262	     -5.41385148	     -6.43240206	    -46.47540518	      5.01673454	    -16.34606142	      1.06757688	      3.33206036	      8.89178796	      4.11405732	    -10.41875005	      8.62103580	     -8.73425159	      6.63015321	     -1.11128003	     -6.86820221	      0.22453021
      1.87050000	      0.29137011	      3.16911230	      1.62676817	      1.50700356	      1.02793234	      0.23466408	     24.90059706	     -5.44319748	     -6.50270982	    -45.34856315	      4.92561077	    -16.50503664	      0.87535255	      2.99426672	      8.91385777	      4.26156185	    -10.29814556	      8.72527567	     -8.69357976	      6.63345385	     -1.18216869	     -6.87593505	      0.09514182
      1.87466667	      0.27116540	      3.20461170	      1.76530232	      1.51133744	      1.02782667	      0.23445169	     25.17962837	     -5.48573421	     -6.55922591	    -44.23434779	      4.82130500	    -16.59283637	      0.71471955	      2.67901328	      8.94977686	      4.40443784	    -10.17013786	      8.83550628	     -8.65346624	      6.63365701	     -1.24994653	     -6.89926054	     -0.02749472
      1.87883333	      0.27063933	      3.24463269	      1.89212519	      1.51564619	      1.02773496	      0.23428503	     25.42116099	     -5.51927988	     -6.58354638	    -43.09436837	      4.67908274	    -16.65481191	      0.53258223	      2.35887631	      8.98841628	      4.54108245	    -10.08173332	      8.94773020	     -8.63748343	      6.63023521	     -1.31170529	     -6.93071964	     -0.16364667
      1.88300000	      0.24145389	      3.29212768	      2.02764483	      1.51999220	      1.02755674	      0.23412023	     25.69380912	     -5.56594871	     -6.61047432	    -41.97314102	      4.54191498	    -16.61075525	      0.39668447	      2.06524697	      9.03442915	      4.69183136	     -9.98405667	      9.07125375	     -8.61383764	      6.62471848	     -1.36826923	     -6.97827952	     -0.26798832
      1.88716667	      0.24482401	      3.35751363	      2.13007977	      1.52436793	      1.02739974	      0.23403906	     25.92596647	     -5.60282847	     -6.56466373	    -40.84966858	      4.38656167	    -16.60017218	      0.04703505	      1.72286001	      9.09415875	      4.82249685	     -9.85652057	      9.15891642	     -8.63713247	      6.59536024	     -1.45013121	     -7.04981216	     -0.48557544
      1.89133333	      0.21229030	      3.40319109	      2.27013746	      1.52870751	      1.02717126	      0.23389939	     26.18511247	     -5.64825071	     -6.58835849	    -39.72495652	      4.24226040	    -16.39931842	     -0.05148739	      1.44707513	      9.13446704	      4.97107737	     -9.79760100	      9.31025401	     -8.61001308	      6.58460473	     -1.48724443	     -7.10238081	     -0.51552992
      1.89550000	      0.17682121	      3.48882616	      2.36088710	      1.53309936	      1.02688084	      0.23386221	     26.45855617	     -5.70368439	     -6.51681451	    -38.63007612	      4.09259792	    -16.18070830	     -0.08536579	      1.15747562	      9.21332598	      5.07240455	     -9.69633434	      9.43242470	     -8.57223330	      6.58200146	     -1.49537089	     -7.20931513	     -0.54947125
      1.89966667	      0.16061505	      3.53324972	      2.49020012	      1.53750889	      1.02662823	      0.23377039	     26.67912541	     -5.73150858	     -6.49180100	    -37.49956832	      3.90648309	    -15.92734735	     -0.14904031	      0.85978267	      9.24709987	      5.21690557	     -9.63236452	      9.57653511	     -8.56530651	      6.56549896	     -1.56357643	     -7.24344114	     -0.64069256
